<?xml version="1.0" encoding="UTF-8" standalone="no"?>
<!-- Created with Inkscape (http://www.inkscape.org/) -->

<svg
    xmlns:dc="http://purl.org/dc/elements/1.1/"
    xmlns:cc="http://creativecommons.org/ns#"
    xmlns:rdf="http://www.w3.org/1999/02/22-rdf-syntax-ns#"
    xmlns:svg="http://www.w3.org/2000/svg"
    xmlns="http://www.w3.org/2000/svg"
    xmlns:sodipodi="http://sodipodi.sourceforge.net/DTD/sodipodi-0.dtd"
    xmlns:inkscape="http://www.inkscape.org/namespaces/inkscape"
    width="195.14018mm"
    height="146.95667mm"
    viewBox="0 0 691.44159 520.71259"
    id="svg2"
    version="1.1"
    inkscape:version="0.91 r13725"
    sodipodi:docname="elixir.svg">
    <defs id="defs4"/>
    <sodipodi:namedview
        id="base"
        pagecolor="#ffffff"
        bordercolor="#666666"
        borderopacity="1.0"
        inkscape:pageopacity="0.0"
        inkscape:pageshadow="2"
        inkscape:zoom="0.98994949"
        inkscape:cx="334.46375"
        inkscape:cy="283.34165"
        inkscape:document-units="px"
        inkscape:current-layer="layer1"
        showgrid="false"
        fit-margin-top="0"
        fit-margin-left="0"
        fit-margin-right="0"
        fit-margin-bottom="0"
        inkscape:window-width="1136"
        inkscape:window-height="929"
        inkscape:window-x="496"
        inkscape:window-y="181"
        inkscape:window-maximized="0"/>
    <metadata id="metadata7">
        <rdf:RDF>
            <cc:Work rdf:about="">
                <dc:format>image/svg+xml</dc:format>
                <dc:type rdf:resource="http://purl.org/dc/dcmitype/StillImage"/>
                <dc:title></dc:title>
            </cc:Work>
        </rdf:RDF>
    </metadata>
    <g inkscape:label="Layer 1" inkscape:groupmode="layer" id="layer1" transform="translate(-438.48604,-407.81443)">
        <g id="g3433" transform="translate(7.0710678,10.101525)">
            <path
                style="fill:#ee7400;fillorig:#ee7400"
                d="m 689.39285,918.13579 c -3.01622,-0.49452 -5.76178,-1.55223 -11.68366,-4.50102 -9.48776,-4.72443 -15.99117,-9.18075 -22.4264,-15.3672 -11.60858,-11.15982 -18.17643,-24.31992 -20.68217,-41.4411 -0.65503,-4.47564 -0.75324,-17.50131 -0.16965,-22.5 4.10195,-35.13525 23.21116,-75.77124 56.43038,-120 20.43726,-27.21059 46.50978,-55.29935 71.94117,-77.50458 l 4.24284,-3.70459 -0.39198,-1.09541 c -0.9441,-2.63829 -6.00771,-15.45545 -8.49207,-21.49541 -16.39704,-39.86423 -34.72263,-75.84937 -54.2992,-106.62493 -13.33582,-20.96475 -28.01058,-40.38089 -42.1927,-55.82507 -3.50605,-3.81805 -4.98847,-5.96315 -5.19739,-7.52075 -0.29854,-2.2258 1.24792,-2.70066 4.13693,-1.27029 3.43098,1.6987 21.33098,20.34923 34.78264,36.24104 32.59761,38.51085 63.08328,87.35299 85.94784,137.7 1.27386,2.805 2.41812,5.20937 2.54283,5.34305 0.12468,0.13369 1.49433,-0.81864 3.04365,-2.11628 18.44472,-15.44841 39.64953,-31.04 66.51018,-48.90391 7.62489,-5.071 10.54602,-7.16815 10.42476,-7.48417 -0.0927,-0.24147 -0.25272,-1.34524 -0.35565,-2.45281 -0.82734,-8.90173 6.08046,-17.08044 15.13719,-17.92218 3.73614,-0.34724 8.23881,0.91198 11.12424,3.11102 0.96066,0.73212 1.07166,0.752 1.8,0.32222 0.42693,-0.25191 5.29872,-3.20306 10.82622,-6.55813 5.5275,-3.35506 10.08354,-6.11984 10.12449,-6.14396 0.041,-0.0241 -0.26772,-0.88608 -0.68598,-1.91547 -2.51898,-6.19925 -2.08575,-13.77321 1.11714,-19.52938 2.36358,-4.24786 5.91234,-7.56263 10.29435,-9.61559 3.72348,-1.74445 6.01809,-2.18225 10.55643,-2.01413 3.06705,0.11362 4.32846,0.30118 6.24357,0.92838 4.17966,1.36882 8.09685,4.13962 10.95894,7.75176 l 1.10961,1.40041 9.86574,-5.52189 c 5.42613,-3.03705 9.99957,-5.56811 10.16319,-5.62458 0.16362,-0.0565 -0.13239,-0.98436 -0.65778,-2.06195 -5.5119,-11.30455 -3.34074,-24.61343 5.44926,-33.40345 3.64929,-3.64928 8.20239,-6.22693 13.60842,-7.70416 3.06567,-0.83771 10.26997,-0.92049 13.32377,-0.1531 7.3827,1.85514 13.7812,6.27967 17.6362,12.1952 0.8147,1.2502 1.6578,2.52643 1.8736,2.83606 0.3692,0.52984 1.1461,0.17985 13.1996,-5.94696 l 12.8073,-6.50993 -0.719,-1.41884 c -1.1212,-2.21265 -2.7985,-7.27798 -3.3659,-10.16492 -0.6978,-3.55049 -0.6995,-10.686 0,-14.22698 2.7933,-14.20776 12.8401,-25.64303 26.426,-30.07791 4.0438,-1.32004 7.1502,-1.77985 12.0244,-1.77985 5.2055,0 8.1832,0.48731 12.8025,2.09516 3.8165,1.32845 5.6908,2.27058 9.2399,4.64449 13.3557,8.9335 19.7835,25.98168 15.7665,41.81697 -5.0675,19.9767 -24.756,32.56344 -44.9868,28.75972 -5.077,-0.95456 -9.8902,-2.86803 -14.0565,-5.58803 -4.1657,-2.71961 -6.8387,-5.25061 -10.6299,-10.06518 l -0.5506,-0.69929 -12.8926,7.10665 c -7.0909,3.90865 -12.929,7.13974 -12.9735,7.1802 -0.044,0.0405 0.1485,1.00465 0.4289,2.14265 0.7727,3.13614 0.7053,9.40067 -0.1377,12.80138 -1.4124,5.69811 -4.0856,10.26399 -8.4008,14.34917 -3.9547,3.74392 -8.4342,6.14832 -13.7095,7.3587 -3.4854,0.79973 -9.31996,0.73434 -12.88192,-0.14436 -4.64949,-1.14698 -10.32444,-4.21954 -13.05189,-7.0666 -0.56862,-0.59356 -1.13562,-1.0792 -1.26,-1.0792 -0.20025,0 -12.26481,7.28165 -18.70614,11.29022 -2.19486,1.36592 -2.39298,1.56906 -2.31798,2.37668 0.0451,0.4857 0.11112,2.5706 0.1467,4.6331 0.0771,4.46924 -0.34626,6.36581 -2.31042,10.35 -2.95806,6.00029 -8.38752,10.34311 -15.0183,12.01257 -2.93667,0.73938 -7.96239,0.6868 -10.99305,-0.11502 -2.41008,-0.63763 -5.26572,-1.95037 -7.34535,-3.37668 l -1.23843,-0.84935 -7.91157,5.33023 c -4.35138,2.93162 -9.3291,6.31746 -11.0616,7.5241 l -3.15,2.19388 -0.003,3.34014 c -0.003,2.69922 -0.13551,3.72525 -0.69354,5.34726 -1.44,4.18583 -4.63848,7.802 -8.55345,9.67049 -4.81476,2.29794 -9.50646,2.22194 -15.2199,-0.24651 -1.10961,-0.4794 -30.25737,22.34554 -47.83011,37.45468 -12.73833,10.95248 -31.95,28.78346 -31.95,29.65383 0,0.16661 1.27032,3.48834 2.82291,7.38164 14.349,35.98166 25.38147,72.59939 31.19187,103.52873 3.05484,16.26117 3.93129,28.17705 2.56722,34.90287 -2.42403,11.95215 -8.89473,21.70872 -17.13831,25.84131 -3.62922,1.81938 -6.30771,2.36538 -10.69527,2.18028 -7.47186,-0.31524 -11.00082,-2.78223 -9.5214,-6.65604 0.58398,-1.52913 1.66431,-2.55021 3.89076,-3.67734 0.8427,-0.42666 2.48952,-1.73541 3.65958,-2.90838 4.81908,-4.83117 6.35424,-11.07516 5.53998,-22.5327 -1.79682,-25.28262 -11.3049,-65.76624 -25.70034,-109.42726 -1.91727,-5.81501 -3.55065,-10.64023 -3.62976,-10.72273 -0.17436,-0.18187 -1.72827,1.4739 -8.18724,8.72391 -7.88148,8.84677 -21.3,24.60125 -21.3,25.00803 0,0.0924 3.88125,0.16937 8.625,0.17099 8.43225,0.003 8.65899,0.0187 10.14627,0.7113 6.13671,2.85753 5.46678,12.02001 -1.04103,14.23818 -0.71712,0.24441 -5.34699,0.34893 -15.6,0.35211 l -14.58024,0.005 -4.08491,5.47047 c -4.19678,5.62029 -9.76417,13.39035 -13.86139,19.34547 l -2.32205,3.375 24.14441,0 c 16.32093,0 24.63942,0.10617 25.67208,0.32763 1.91271,0.41019 3.76449,1.79907 4.94544,3.7092 0.80211,1.29738 0.90573,1.72779 0.90045,3.73965 -0.008,3.21891 -1.36884,5.49753 -4.19403,7.0248 l -1.2,0.64872 -30.0429,0.0806 c -23.34517,0.0626 -30.11111,0.16293 -30.34874,0.45 -1.42662,1.72326 -15.65836,28.21137 -15.65836,29.14332 0,0.0919 17.11125,0.20286 38.025,0.2466 36.42474,0.0761 38.06919,0.10302 39.075,0.6381 1.47063,0.78234 2.93973,2.23041 3.69435,3.6414 0.49095,0.91803 0.64338,1.73421 0.64869,3.47352 0.006,2.01282 -0.097,2.44167 -0.89946,3.73965 -1.18095,1.91013 -3.03273,3.29901 -4.94544,3.7092 -1.06155,0.22767 -13.87086,0.32763 -41.98169,0.32763 l -40.45402,0 -1.19656,3.375 c -4.52452,12.76185 -7.28381,24.02085 -8.65723,35.325 -0.65517,5.3925 -0.74771,17.82762 -0.16744,22.5 1.72854,13.91838 6.48518,26.25789 13.79884,35.79648 4.12872,5.38473 9.41811,10.42506 14.00996,13.35027 2.85349,1.81779 4.00257,2.96301 4.38022,4.36548 1.09623,4.07106 -2.71552,8.27814 -8.33399,9.1983 -2.00573,0.3285 -2.61957,0.32208 -4.89623,-0.0512 z"
                id="path3439"
                inkscape:connector-curvature="0"/>
            <path
                style="fill:#fafafa;fillorig:#534e4b"
                d="m 448.49285,710.53948 c -5.48412,-0.63369 -9.74853,-2.32119 -12.64704,-5.00472 -3.07401,-2.84598 -4.27249,-6.35826 -4.26815,-12.50829 0.002,-2.145 0.17587,-4.98 0.38747,-6.3 0.35467,-2.2125 12.70334,-56.37126 14.10364,-61.85568 0.33901,-1.32777 1.10222,-3.81592 1.69601,-5.52922 4.1857,-12.0771 9.98489,-18.34676 19.54352,-21.12904 5.70406,-1.6603 4.8558,-1.63286 50.33455,-1.62834 26.49475,0.003 42.77526,0.11537 44.1,0.30538 9.23768,1.32498 14.12211,4.92381 15.96983,11.76651 0.68492,2.53647 0.66438,9.28201 -0.0395,12.9704 -0.28339,1.485 -2.43503,11.205 -4.78142,21.6 l -4.26615,18.89999 -50.11081,0.0759 -50.1108,0.0759 -2.76186,12.07413 c -3.01124,13.16435 -3.34496,14.88542 -3.34756,17.26402 -0.002,2.17065 0.63232,3.2701 2.34456,4.0614 l 1.4037,0.6487 41.85,-5.7e-4 c 38.22508,-6e-4 42.1799,-0.0461 45.65876,-0.52621 2.09483,-0.2891 4.67597,-0.70742 5.73587,-0.92959 l 1.9271,-0.40396 -1.74192,4.23018 c -0.95805,2.32659 -2.46691,5.98515 -3.35301,8.13015 l -1.6111,3.9 -51.88285,0.0365 c -28.53557,0.0201 -52.89535,-0.0805 -54.13285,-0.2235 z m 95.31008,-76.163 c 4.04112,-17.32752 3.98145,-17.05008 3.96778,-18.45 -0.0213,-2.18327 -0.57537,-3.19013 -2.21985,-4.0342 l -1.49199,-0.7658 -29.55801,0 -29.55801,0 -1.57718,0.71288 c -3.02059,1.36529 -4.26943,3.48556 -5.48341,9.30963 -0.46745,2.24261 -2.0063,9.04192 -3.41966,15.10955 -1.41336,6.06764 -2.56975,11.16446 -2.56975,11.32627 0,0.19099 12.06642,0.26744 34.3983,0.21793 l 34.3983,-0.0763 3.11348,-13.35 z m 35.78992,76.40207 c 0,-0.0539 0.65716,-1.8426 1.46036,-3.975 1.9737,-5.23992 4.63226,-13.41315 5.55962,-17.09194 0.88362,-3.50526 26.93629,-124.08166 28.52867,-132.03574 1.67872,-8.38537 1.94262,-10.37579 2.15108,-16.22439 l 0.19514,-5.475 17.79315,0 c 14.10603,0 17.76537,0.0777 17.65907,0.375 -0.14887,0.41636 -31.54826,145.26013 -32.72852,150.97499 -1.9031,9.21482 -2.57416,13.79628 -2.73539,18.675 l -0.1611,4.875 -18.86104,0 c -10.37357,0 -18.86104,-0.0441 -18.86104,-0.0979 z m 59.1,-0.0443 c 0,-0.0782 0.4207,-1.19196 0.93489,-2.475 1.75583,-4.38126 4.39114,-11.92842 5.31898,-15.2328 0.50963,-1.815 4.49703,-18.7575 8.86088,-37.64999 9.54493,-41.32304 10.68525,-47.17154 10.68525,-54.80285 l 0,-3.99715 16.79059,0 c 13.30227,0 16.76339,0.0779 16.6597,0.375 -0.26153,0.74933 -21.41906,94.66259 -22.01627,97.72499 -1.18759,6.08979 -1.53655,8.5851 -1.73059,12.375 l -0.19584,3.825 -17.6538,0 c -9.70958,0 -17.65379,-0.064 -17.65379,-0.1422 z m 194.4,0.0303 c 0,-0.0615 0.29073,-0.76911 0.64608,-1.57245 1.08429,-2.45121 4.11681,-10.86645 5.20575,-14.44596 1.15737,-3.80445 16.79796,-71.19314 17.98035,-77.46971 1.31748,-6.99377 1.94022,-11.70106 2.15298,-16.275 l 0.20586,-4.425 16.62471,0 c 15.69072,0 16.61619,0.0295 16.47333,0.525 -0.17997,0.62412 -19.94694,88.12269 -21.22527,93.95369 -1.52841,6.97173 -2.36379,12.78024 -2.36379,16.43592 l 0,3.38538 -17.85,0 c -9.8175,0 -17.85,-0.0503 -17.85,-0.11187 z m 66.63648,-2.06313 c 3.30354,-7.962 5.10246,-14.93733 14.2167,-55.12499 4.06014,-17.9025 7.57476,-33.225 7.81029,-34.05 0.23553,-0.825 0.97989,-4.2675 1.65411,-7.65 0.97992,-4.91621 1.26066,-7.06783 1.39932,-10.725 l 0.17349,-4.575 14.80479,0 14.80482,0 -0.006,0.825 c -0.003,0.45375 -0.20436,2.58 -0.447,4.725 -0.69231,6.12035 -0.70014,6.09336 1.00047,3.45 2.67345,-4.1555 6.41328,-6.97953 11.00238,-8.30817 1.59957,-0.46311 3.77091,-0.53201 19.5,-0.61871 l 17.7,-0.0976 3.4899,6.23723 3.4898,6.23723 -1.6898,1.83675 c -0.9295,1.01022 -2.493,2.74941 -3.4745,3.86487 l -1.7847,2.02811 -2.2653,-0.19186 c -1.246,-0.10552 -4.0879,-0.40468 -6.3154,-0.66481 -2.94366,-0.34375 -8.19987,-0.51559 -19.24137,-0.62907 -13.67445,-0.14053 -15.36696,-0.10542 -16.95,0.35163 -3.40878,0.98419 -5.43051,3.21314 -6.80673,7.50438 -0.26457,0.825 -3.39744,14.595 -6.96192,30.6 -3.56448,16.00499 -7.0029,31.32749 -7.64094,34.04999 -1.94175,8.28545 -2.98962,15.65529 -2.99646,21.075 l -0.003,2.025 -17.68299,0 -17.68299,0 0.90246,-2.175 z M 685.04285,572.56028 c -3.62434,-0.46997 -7.65858,-2.58821 -10.00402,-5.25277 -2.49724,-2.83702 -4.22802,-7.37052 -4.24077,-11.10805 -0.007,-2.02278 0.9791,-5.79424 2.01323,-7.70066 1.86514,-3.43834 5.48401,-6.45571 9.32443,-7.77458 2.84606,-0.97739 7.4682,-0.97739 10.31426,0 11.5401,3.96308 14.97094,18.59085 6.3762,27.18559 -3.63048,3.63048 -8.63297,5.31831 -13.78333,4.65047 z"
                id="path3435"
                inkscape:connector-curvature="0"/>
        </g>
    </g>
</svg>
