<?xml version="1.0" encoding="UTF-8" standalone="no"?>
<!-- Created with Inkscape (http://www.inkscape.org/) -->

<svg
   xmlns:dc="http://purl.org/dc/elements/1.1/"
   xmlns:cc="http://creativecommons.org/ns#"
   xmlns:rdf="http://www.w3.org/1999/02/22-rdf-syntax-ns#"
   xmlns:svg="http://www.w3.org/2000/svg"
   xmlns="http://www.w3.org/2000/svg"
   xmlns:sodipodi="http://sodipodi.sourceforge.net/DTD/sodipodi-0.dtd"
   xmlns:inkscape="http://www.inkscape.org/namespaces/inkscape"
   width="114.26178"
   height="114.26178"
   id="svg6126"
   version="1.1"
   inkscape:version="0.48.3.1 r9886"
   sodipodi:docname="New document 3">
  <defs
     id="defs6128">
    <filter
       color-interpolation-filters="sRGB"
       inkscape:collect="always"
       id="filter33413-3-7-1-4-9-0-2-5-8-0-5-0-5-99-2-8-3-0">
      <feGaussianBlur
         inkscape:collect="always"
         stdDeviation="0.50091747"
         id="feGaussianBlur33415-4-0-7-8-1-3-2-1-7-0-8-1-5-2-0-6-7-5" />
    </filter>
  </defs>
  <sodipodi:namedview
     id="base"
     pagecolor="#ffffff"
     bordercolor="#666666"
     borderopacity="1.0"
     inkscape:pageopacity="0.0"
     inkscape:pageshadow="2"
     inkscape:zoom="3.959798"
     inkscape:cx="31.107769"
     inkscape:cy="56.191051"
     inkscape:document-units="px"
     inkscape:current-layer="layer1"
     showgrid="false"
     fit-margin-top="0"
     fit-margin-left="0"
     fit-margin-right="0"
     fit-margin-bottom="0"
     inkscape:window-width="1680"
     inkscape:window-height="1000"
     inkscape:window-x="0"
     inkscape:window-y="0"
     inkscape:window-maximized="1" />
  <metadata
     id="metadata6131">
    <rdf:RDF>
      <cc:Work
         rdf:about="">
        <dc:format>image/svg+xml</dc:format>
        <dc:type
           rdf:resource="http://purl.org/dc/dcmitype/StillImage" />
        <dc:title></dc:title>
      </cc:Work>
    </rdf:RDF>
  </metadata>
  <g
     inkscape:label="Layer 1"
     inkscape:groupmode="layer"
     id="layer1"
     transform="translate(-319.76285,-695.2313)">
    <path
       sodipodi:type="arc"
       style="fill:#37444b;fill-opacity:1;stroke:none"
       id="path22600-7-2-3-0-6-2-7-5-6-5-6-0-4-5-57-1-9-4-4-3-0-2-4-2-2-7-0-3-9-9-3-9-6"
       sodipodi:cx="99.24749"
       sodipodi:cy="245.75537"
       sodipodi:rx="38.026928"
       sodipodi:ry="38.026928"
       d="m 137.27442,245.75537 c 0,21.00169 -17.02524,38.02693 -38.02693,38.02693 -21.001692,0 -38.026928,-17.02524 -38.026928,-38.02693 0,-21.00169 17.025236,-38.02693 38.026928,-38.02693 21.00169,0 38.02693,17.02524 38.02693,38.02693 z"
       transform="matrix(1.3434612,-0.67176529,0.67176529,1.3434612,78.468654,488.8704)" />
    <path
       style="fill:none;stroke:#ffffff;stroke-width:1.70000005;stroke-linecap:butt;stroke-linejoin:miter;stroke-miterlimit:4;stroke-opacity:1;stroke-dasharray:none"
       d="m 356.91255,736.6416 23.2142,16.0714 -2.2421,28.227"
       id="path22706-0-47-8-62-3-1-7-4-7-06-5-4-8-10-6-1-9-6-1-7-9-6-8-4-4-5-14-1-2-2-7-6-89"
       inkscape:connector-curvature="0"
       sodipodi:nodetypes="ccc" />
    <path
       style="fill:none;stroke:#ffffff;stroke-width:1.70000005;stroke-linecap:butt;stroke-linejoin:miter;stroke-miterlimit:4;stroke-opacity:1;stroke-dasharray:none"
       d="m 407.80535,757.5344 -28.2143,-1.7857 26.0715,20.5357"
       id="path22708-5-7-1-01-2-5-7-3-7-86-8-8-4-28-2-3-5-7-6-6-8-1-2-5-7-9-5-5-57-3-4-9-6"
       inkscape:connector-curvature="0" />
    <g
       transform="translate(2672.4949,4629.0117)"
       id="g33392-5-3-2-0-4-27-5-9-8-8-0-6-8-8-9-8-8"
       style="filter:url(#filter33413-3-7-1-4-9-0-2-5-8-0-5-0-5-99-2-8-3-0)">
      <path
         transform="matrix(0.98309265,-0.18310879,0.18310879,0.98309265,855.28454,-562.36623)"
         inkscape:connector-curvature="0"
         id="path30233-03-9-0-6-6-27-6-9-1-0-3-5-5-0-9-2-2-5-7-4"
         d="m -2529.1731,-3819.4358 -17.1726,15.6574"
         style="fill:none;stroke:#ffffff;stroke-width:10;stroke-linecap:round;stroke-linejoin:miter;stroke-miterlimit:4;stroke-opacity:1;stroke-dasharray:none" />
      <path
         sodipodi:type="arc"
         style="fill:#ffffff;fill-opacity:1;stroke:none"
         id="path22279-2-9-3-4-1-5-5-8-0-9-6-92-2-8-9-9-1-7-6-5-4-6-6-6-1-3-1-4-4-4-4-5-4-2"
         sodipodi:cx="190.71428"
         sodipodi:cy="403.43362"
         sodipodi:rx="39.642857"
         sodipodi:ry="39.642857"
         d="m 230.35714,403.43362 c 0,21.89415 -17.74872,39.64286 -39.64286,39.64286 -21.89415,0 -39.64286,-17.74871 -39.64286,-39.64286 0,-21.89414 17.74871,-39.64285 39.64286,-39.64285 21.89414,0 39.64286,17.74871 39.64286,39.64285 z"
         transform="matrix(0.40991694,0.1737663,-0.1737663,0.40991694,-2298.9846,-4071.9451)" />
      <path
         sodipodi:type="arc"
         style="fill:#ffffff;fill-opacity:1;stroke:none"
         id="path22315-0-4-9-6-47-6-6-7-5-8-2-6-4-74-85-0-6-6-5-2-7-6-9-5-2-3-5-8-3-5-8-9-4-1"
         sodipodi:cx="190.71428"
         sodipodi:cy="403.43362"
         sodipodi:rx="39.642857"
         sodipodi:ry="39.642857"
         d="m 230.35714,403.43362 c 0,21.89415 -17.74872,39.64286 -39.64286,39.64286 -21.89415,0 -39.64286,-17.74871 -39.64286,-39.64286 0,-21.89414 17.74871,-39.64285 39.64286,-39.64285 21.89414,0 39.64286,17.74871 39.64286,39.64285 z"
         transform="matrix(0.32806709,0.14529984,-0.14529984,0.32806709,-2332.753,-4014.2337)" />
      <path
         sodipodi:type="arc"
         style="fill:#ffffff;fill-opacity:1;stroke:none"
         id="path22373-3-0-0-2-3-0-1-4-2-4-9-7-0-2-7-35-8-0-3-3-5-6-6-8-3-46-9-4-6-3-4-3-5-0"
         sodipodi:cx="190.71428"
         sodipodi:cy="403.43362"
         sodipodi:rx="39.642857"
         sodipodi:ry="39.642857"
         d="m 230.35714,403.43362 c 0,21.89415 -17.74872,39.64286 -39.64286,39.64286 -21.89415,0 -39.64286,-17.74871 -39.64286,-39.64286 0,-21.89414 17.74871,-39.64285 39.64286,-39.64285 21.89414,0 39.64286,17.74871 39.64286,39.64285 z"
         transform="matrix(0.35733707,0.01412833,-0.01412833,0.35733707,-2326.335,-4048.7105)" />
      <rect
         transform="matrix(0.8869417,-0.46188139,0.46188139,0.8869417,-1859.7638,-2293.9257)"
         y="-1604.2861"
         x="311.69708"
         height="9.2819176"
         width="20.357147"
         id="rect22712-8-8-7-5-9-6-0-1-5-5-1-7-8-6-0-4-3-9-0-9-9-4-1-5-1-3-7-02-6-0-8-0-4-7"
         style="fill:#ffffff;fill-opacity:1;stroke:none" />
      <rect
         transform="matrix(0.72200884,-0.69188383,0.69188383,0.72200884,-1478.6257,-2454.1464)"
         y="-1591.8364"
         x="406.6593"
         height="8.6629725"
         width="20.357147"
         id="rect22712-5-1-6-1-6-6-2-9-8-4-4-4-9-3-7-8-1-6-0-1-9-8-9-1-60-6-7-9-3-8-8-2-9-99"
         style="fill:#ffffff;fill-opacity:1;stroke:none" />
      <path
         transform="matrix(0.99627289,-0.08625735,0.08625735,0.99627289,524.61104,-260.34533)"
         sodipodi:nodetypes="cc"
         inkscape:connector-curvature="0"
         id="path30233-6-9-3-4-3-7-4-9-6-1-5-9-1-7-2-3-2-1-0-7-9"
         d="m -2450.5074,-3888.4419 -12.1218,20.4557"
         style="fill:none;stroke:#ffffff;stroke-width:10;stroke-linecap:round;stroke-linejoin:miter;stroke-miterlimit:4;stroke-opacity:1;stroke-dasharray:none" />
    </g>
    <path
       style="fill:none;stroke:#464646;stroke-width:2.79999995;stroke-linecap:round;stroke-linejoin:miter;stroke-miterlimit:4;stroke-opacity:1;stroke-dasharray:none"
       d="m 327.44815,793.963 15.8929,-19.1071 38.2142,-17.5 27.6787,-30.5357 11.4897,-21.7208"
       id="path22704-5-2-0-3-9-2-5-4-9-5-9-2-7-5-6-9-6-6-9-1-3-5-2-0-9-3-7-1-3-7-2-6-2"
       inkscape:connector-curvature="0"
       sodipodi:nodetypes="ccccc" />
    <path
       transform="matrix(0.31463334,0.133375,-0.133375,0.31463334,375.38695,603.2104)"
       d="m 230.35714,403.43362 c 0,21.89415 -17.74872,39.64286 -39.64286,39.64286 -21.89415,0 -39.64286,-17.74871 -39.64286,-39.64286 0,-21.89414 17.74871,-39.64285 39.64286,-39.64285 21.89414,0 39.64286,17.74871 39.64286,39.64285 z"
       sodipodi:ry="39.642857"
       sodipodi:rx="39.642857"
       sodipodi:cy="403.43362"
       sodipodi:cx="190.71428"
       id="path22279-5-5-4-51-0-5-4-9-9-0-5-8-81-94-68-8-0-3-1-6-7-2-6-12-5-9-6-0-4-7-1-0-8"
       style="fill:#64b1cb;fill-opacity:1;stroke:#464646;stroke-width:7.02297926;stroke-miterlimit:4;stroke-opacity:1;stroke-dasharray:none"
       sodipodi:type="arc" />
    <path
       transform="matrix(0.23489644,0.10403486,-0.10403486,0.23489644,340.86315,660.236)"
       d="m 230.35714,403.43362 c 0,21.89415 -17.74872,39.64286 -39.64286,39.64286 -21.89415,0 -39.64286,-17.74871 -39.64286,-39.64286 0,-21.89414 17.74871,-39.64285 39.64286,-39.64285 21.89414,0 39.64286,17.74871 39.64286,39.64285 z"
       sodipodi:ry="39.642857"
       sodipodi:rx="39.642857"
       sodipodi:cy="403.43362"
       sodipodi:cx="190.71428"
       id="path22315-6-9-1-2-4-1-0-0-8-0-6-0-12-21-75-3-6-9-8-5-9-2-8-6-7-2-8-3-76-8-0-4-1"
       style="fill:#247e9c;fill-opacity:1;stroke:#464646;stroke-width:9.34201622;stroke-miterlimit:4;stroke-opacity:1;stroke-dasharray:none"
       sodipodi:type="arc" />
    <path
       transform="matrix(0.1088967,0.04817553,-0.04817553,0.1088967,407.42645,704.0125)"
       d="m 230.35714,403.43362 c 0,21.89415 -17.74872,39.64286 -39.64286,39.64286 -21.89415,0 -39.64286,-17.74871 -39.64286,-39.64286 0,-21.89414 17.74871,-39.64285 39.64286,-39.64285 21.89414,0 39.64286,17.74871 39.64286,39.64285 z"
       sodipodi:ry="39.642857"
       sodipodi:rx="39.642857"
       sodipodi:cy="403.43362"
       sodipodi:cx="190.71428"
       id="path22359-3-7-5-0-3-2-0-4-1-58-9-3-7-68-3-7-5-3-02-5-8-47-7-7-5-0-35-9-93-7-4-5-5"
       style="fill:#ffffff;fill-opacity:1;stroke:none"
       sodipodi:type="arc" />
    <path
       transform="matrix(0.16945082,-0.12371696,0.12371696,0.16945082,273.63245,691.2242)"
       d="m 230.35714,403.43362 c 0,21.89415 -17.74872,39.64286 -39.64286,39.64286 -21.89415,0 -39.64286,-17.74871 -39.64286,-39.64286 0,-21.89414 17.74871,-39.64285 39.64286,-39.64285 21.89414,0 39.64286,17.74871 39.64286,39.64285 z"
       sodipodi:ry="39.642857"
       sodipodi:rx="39.642857"
       sodipodi:cy="403.43362"
       sodipodi:cx="190.71428"
       id="path22361-3-8-8-2-7-9-6-1-7-6-5-9-4-1-29-5-8-4-6-7-8-0-8-2-9-2-2-1-2-6-8-5-9"
       style="fill:#ffffff;fill-opacity:1;stroke:none"
       sodipodi:type="arc" />
    <path
       transform="matrix(0.09307798,0.00542274,-0.00542274,0.09307798,362.05605,742.4966)"
       d="m 230.35714,403.43362 c 0,21.89415 -17.74872,39.64286 -39.64286,39.64286 -21.89415,0 -39.64286,-17.74871 -39.64286,-39.64286 0,-21.89414 17.74871,-39.64285 39.64286,-39.64285 21.89414,0 39.64286,17.74871 39.64286,39.64285 z"
       sodipodi:ry="39.642857"
       sodipodi:rx="39.642857"
       sodipodi:cy="403.43362"
       sodipodi:cx="190.71428"
       id="path22363-8-6-2-1-2-7-0-8-3-4-7-6-8-3-0-4-1-0-4-0-2-68-7-8-0-0-8-6-7-5-9-7-45"
       style="fill:#ffffff;fill-opacity:1;stroke:none"
       sodipodi:type="arc" />
    <path
       transform="matrix(0.19218343,0.05977609,-0.05977609,0.19218343,393.75135,687.9375)"
       d="m 230.35714,403.43362 c 0,21.89415 -17.74872,39.64286 -39.64286,39.64286 -21.89415,0 -39.64286,-17.74871 -39.64286,-39.64286 0,-21.89414 17.74871,-39.64285 39.64286,-39.64285 21.89414,0 39.64286,17.74871 39.64286,39.64285 z"
       sodipodi:ry="39.642857"
       sodipodi:rx="39.642857"
       sodipodi:cy="403.43362"
       sodipodi:cx="190.71428"
       id="path22365-5-6-7-4-1-7-1-0-6-3-8-7-78-5-0-2-0-4-4-9-5-2-2-6-9-5-3-6-7-3-8-8-1"
       style="fill:#ffffff;fill-opacity:1;stroke:none"
       sodipodi:type="arc" />
    <path
       transform="matrix(0.25708417,0.01016455,-0.01016455,0.25708417,363.68035,621.5025)"
       d="m 230.35714,403.43362 c 0,21.89415 -17.74872,39.64286 -39.64286,39.64286 -21.89415,0 -39.64286,-17.74871 -39.64286,-39.64286 0,-21.89414 17.74871,-39.64285 39.64286,-39.64285 21.89414,0 39.64286,17.74871 39.64286,39.64285 z"
       sodipodi:ry="39.642857"
       sodipodi:rx="39.642857"
       sodipodi:cy="403.43362"
       sodipodi:cx="190.71428"
       id="path22373-5-7-7-53-1-0-4-2-8-4-1-6-5-31-560-3-8-4-6-0-8-1-9-1-36-3-6-0-1-4-2-2-36"
       style="fill:#87d6ef;fill-opacity:1;stroke:#464646;stroke-width:9.32817554;stroke-miterlimit:4;stroke-opacity:1;stroke-dasharray:none"
       sodipodi:type="arc" />
    <path
       transform="matrix(0.09307798,0.00542274,-0.00542274,0.09307798,316.28275,714.2328)"
       d="m 230.35714,403.43362 c 0,21.89415 -17.74872,39.64286 -39.64286,39.64286 -21.89415,0 -39.64286,-17.74871 -39.64286,-39.64286 0,-21.89414 17.74871,-39.64285 39.64286,-39.64285 21.89414,0 39.64286,17.74871 39.64286,39.64285 z"
       sodipodi:ry="39.642857"
       sodipodi:rx="39.642857"
       sodipodi:cy="403.43362"
       sodipodi:cx="190.71428"
       id="path22363-8-1-8-0-7-4-7-5-0-4-2-0-0-3-71-5-0-8-7-2-7-1-9-7-4-5-0-5-9-5-3-7-7-4"
       style="fill:#ffffff;fill-opacity:1;stroke:none"
       sodipodi:type="arc" />
    <path
       style="fill:#ff7100;fill-opacity:1;stroke:#464646;stroke-width:1.82926416;stroke-linejoin:round;stroke-miterlimit:4;stroke-opacity:1;stroke-dasharray:none"
       d="m 369.95724,732.29909 8.77692,-3.14257 -3.12234,20.76925 17.99641,-33.29067 -11.08793,2.62499 7.51473,-17.53769 -11.87106,2.37072 z"
       id="path25792-0-8-4-6"
       inkscape:connector-curvature="0"
       sodipodi:nodetypes="cccccccc" />
  </g>
</svg>
